<svg  data-name="Componente 6 – 1" xmlns="http://www.w3.org/2000/svg" width="32" viewBox="0 0 72.784 29.971">
  <g  data-name="Grupo 73" transform="translate(0 2.83)">
    <path  data-name="Caminho-7" d="M-3917.742,4850.27l-5.988,5.985v-5.985Z" transform="translate(3941.681 -4838.293)" fill="#f7931e"/>
    <path  data-name="Caminho-8" d="M-3959.432,4820.458v5.988h-5.988v-5.988h-5.982v11.953h11.963v.02l-5.965,5.968h-11.986V4814.47h17.951v5.988Z" transform="translate(3977.39 -4814.47)" fill="#005482"/>
  </g>
  <g  data-name="Grupo 76" transform="translate(24.756)">
    <g  data-name="Grupo 74" transform="translate(0.507)">
      <path class="-logo-text"  data-name="Caminho-9" d="M-3899.431,4818.126v-8.416h-2.442v10.637h4.778l2.222-2.222Z" transform="translate(3901.873 -4808.473)" fill="#4b4b4b"/>
      <path class="-logo-text"  data-name="Caminho-10" d="M-3877.639,4809.505v8.381h2.365v-8.381Zm2.15-3.114a1.325,1.325,0,0,0-.963-.38,1.349,1.349,0,0,0-.976.38,1.248,1.248,0,0,0-.389.921,1.266,1.266,0,0,0,.389.938,1.348,1.348,0,0,0,.976.38,1.325,1.325,0,0,0,.963-.38,1.266,1.266,0,0,0,.389-.938A1.248,1.248,0,0,0-3875.489,4806.392Z" transform="translate(3885.865 -4806.011)" fill="#4b4b4b"/>
      <path class="-logo-text"  data-name="Caminho-11" d="M-3856.437,4812.846a4.33,4.33,0,0,0-.819-1.381,3.7,3.7,0,0,0-1.263-.913,4.011,4.011,0,0,0-1.627-.325,3.058,3.058,0,0,0-1.453.313,2.6,2.6,0,0,0-.942.833v-4.035h-2.37v11.432h2.37v-.984a2.589,2.589,0,0,0,.942.828,3.222,3.222,0,0,0,1.47.3,3.954,3.954,0,0,0,1.618-.325,3.774,3.774,0,0,0,1.255-.9,4.125,4.125,0,0,0,.819-1.364,5.007,5.007,0,0,0,.292-1.732A5.048,5.048,0,0,0-3856.437,4812.846Zm-2.29,2.51a1.75,1.75,0,0,1-.4.638,1.929,1.929,0,0,1-.625.426,2.054,2.054,0,0,1-.823.161,1.972,1.972,0,0,1-1.352-.478,1.789,1.789,0,0,1-.617-1.191v-.667a1.919,1.919,0,0,1,.625-1.2,1.93,1.93,0,0,1,1.344-.481,2.062,2.062,0,0,1,.823.156,1.847,1.847,0,0,1,.625.439,1.8,1.8,0,0,1,.4.651,2.22,2.22,0,0,1,.135.786A2.1,2.1,0,0,1-3858.727,4815.355Z" transform="translate(3877.276 -4806.894)" fill="#4b4b4b"/>
      <path class="-logo-text"  data-name="Caminho-12" d="M-3827.295,4820.452c0-.063,0-.156-.009-.278s-.021-.3-.042-.545a4.148,4.148,0,0,0-.452-1.487,3.846,3.846,0,0,0-.925-1.157,4.166,4.166,0,0,0-1.326-.748,5.029,5.029,0,0,0-1.644-.262,4.591,4.591,0,0,0-1.749.326,4.238,4.238,0,0,0-1.373.9,4.142,4.142,0,0,0-.9,1.386,4.5,4.5,0,0,0-.325,1.736,4.391,4.391,0,0,0,.334,1.732,4.2,4.2,0,0,0,.912,1.373,3.918,3.918,0,0,0,.9.672,3.652,3.652,0,0,0,.482.232,4.644,4.644,0,0,0,1.753.325,5.008,5.008,0,0,0,1.5-.215,4.251,4.251,0,0,0,1.238-.6,3.561,3.561,0,0,0,.921-.946,3.688,3.688,0,0,0,.532-1.238h-2.556a1.836,1.836,0,0,1-.65.617,1.811,1.811,0,0,1-.938.258,1.945,1.945,0,0,1-1.348-.469,2.029,2.029,0,0,1-.651-1.217h6.3C-3827.3,4820.714-3827.295,4820.579-3827.295,4820.452Zm-6.24-.9a1.989,1.989,0,0,1,.651-1.048,1.829,1.829,0,0,1,1.221-.4,1.841,1.841,0,0,1,1.208.405,1.708,1.708,0,0,1,.6,1.04Z" transform="translate(3858.066 -4812.641)" fill="#4b4b4b"/>
      <path class="-logo-text"  data-name="Caminho-13" d="M-3802.259,4816.388a3.341,3.341,0,0,0-1.326,1.255v-1.508h-2.365v8.381h2.365V4820.8a2.229,2.229,0,0,1,.317-1.026,2.566,2.566,0,0,1,.68-.735,2.86,2.86,0,0,1,.946-.448,3.975,3.975,0,0,1,1.1-.127v-2.493A3.705,3.705,0,0,0-3802.259,4816.388Z" transform="translate(3838.04 -4812.641)" fill="#4b4b4b"/>
      <path class="-logo-text"  data-name="Caminho-14" d="M-3781.173,4816.135v1a2.57,2.57,0,0,0-.946-.849,3.083,3.083,0,0,0-1.47-.313,3.96,3.96,0,0,0-1.609.326,3.778,3.778,0,0,0-1.271.912,4.2,4.2,0,0,0-.824,1.382,4.946,4.946,0,0,0-.3,1.749,4.9,4.9,0,0,0,.3,1.732c.046.131.1.257.16.384a3.871,3.871,0,0,0,.655.98,3.753,3.753,0,0,0,1.263.9,4.026,4.026,0,0,0,1.626.325,3.191,3.191,0,0,0,1.47-.3,2.633,2.633,0,0,0,.946-.828v1.187h2.366v-8.583Zm0,4.49a2.15,2.15,0,0,1-.207.667,1.619,1.619,0,0,1-.423.541,2.2,2.2,0,0,1-.6.359,2.06,2.06,0,0,1-.752.135,2.08,2.08,0,0,1-.82-.161,1.856,1.856,0,0,1-.625-.427,1.938,1.938,0,0,1-.4-.638,2.068,2.068,0,0,1-.14-.638,1.162,1.162,0,0,1,0-.122,2.337,2.337,0,0,1,.135-.786,1.8,1.8,0,0,1,.4-.65,1.887,1.887,0,0,1,.625-.439,2.072,2.072,0,0,1,.828-.156,1.925,1.925,0,0,1,1.365.5,1.921,1.921,0,0,1,.621,1.229Z" transform="translate(3825.822 -4812.641)" fill="#4b4b4b"/>
    </g>
    <g  data-name="Grupo 75" transform="translate(0 14.999)">
      <path class="-logo-text"  data-name="Caminho-15" d="M-3895.2,4860.7a2.59,2.59,0,0,1-.984,1.368,2.805,2.805,0,0,1-1.669.507,2.81,2.81,0,0,1-1.157-.241.559.559,0,0,1-.085-.042,2.813,2.813,0,0,1-.862-.609,2.957,2.957,0,0,1-.634-.967,2.855,2.855,0,0,1-.148-.49,2.934,2.934,0,0,1-.08-.7,2.984,2.984,0,0,1,.228-1.166,3.015,3.015,0,0,1,.634-.959,2.938,2.938,0,0,1,.947-.65,2.818,2.818,0,0,1,1.157-.241,3.042,3.042,0,0,1,.743.088,2.7,2.7,0,0,1,.925.418,2.593,2.593,0,0,1,.984,1.369h.013l1.931-1.931a4.957,4.957,0,0,0-1.061-1.183,4.971,4.971,0,0,0-.891-.574,4.941,4.941,0,0,0-.722-.317,5.819,5.819,0,0,0-1.935-.317,5.423,5.423,0,0,0-2.154.431,5.438,5.438,0,0,0-1.753,1.174,5.665,5.665,0,0,0-1.183,1.745,5.261,5.261,0,0,0-.435,2.129,5.259,5.259,0,0,0,.435,2.129c.08.177.165.351.258.516a5.516,5.516,0,0,0,.925,1.229,5.434,5.434,0,0,0,.858.7,5.485,5.485,0,0,0,.9.478,5.423,5.423,0,0,0,2.154.431,5.819,5.819,0,0,0,1.935-.317,5.5,5.5,0,0,0,1.614-.891,5.18,5.18,0,0,0,1.183-1.365,5.219,5.219,0,0,0,.651-1.749Z" transform="translate(3903.388 -4852.988)" fill="#4b4b4b"/>
      <path class="-logo-text"  data-name="Caminho-16" d="M-3863.012,4861.223a3.37,3.37,0,0,0-1.327,1.255v-1.508h-2.365v8.381h2.365v-3.713a2.331,2.331,0,0,1,.317-1.026,2.648,2.648,0,0,1,.685-.739,2.921,2.921,0,0,1,.946-.444,3.956,3.956,0,0,1,1.1-.127v-2.492A3.7,3.7,0,0,0-3863.012,4861.223Z" transform="translate(3878.976 -4857.476)" fill="#4b4b4b"/>
      <path class="-logo-text"  data-name="Caminho-17" d="M-3847.349,4854.339v8.381h2.366v-8.381Zm2.15-3.113a1.315,1.315,0,0,0-.959-.38,1.336,1.336,0,0,0-.976.38,1.232,1.232,0,0,0-.388.921,1.251,1.251,0,0,0,.388.938,1.336,1.336,0,0,0,.976.38,1.315,1.315,0,0,0,.959-.38,1.249,1.249,0,0,0,.389-.938A1.231,1.231,0,0,0-3845.2,4851.226Z" transform="translate(3866.211 -4850.845)" fill="#4b4b4b"/>
      <path class="-logo-text"  data-name="Caminho-18" d="M-3826.13,4859.655a4.283,4.283,0,0,0-.828-1.381,3.74,3.74,0,0,0-1.268-.913,4.029,4.029,0,0,0-1.631-.325,3.058,3.058,0,0,0-1.453.308,2.6,2.6,0,0,0-.942.849v-3.054l-2.366,2.366v11.17h2.366v-4.081a2.584,2.584,0,0,0,.942.828,3.219,3.219,0,0,0,1.47.3,4,4,0,0,0,1.627-.326,3.721,3.721,0,0,0,1.263-.9,4.148,4.148,0,0,0,.819-1.369,4.979,4.979,0,0,0,.292-1.728A5.029,5.029,0,0,0-3826.13,4859.655Zm-2.294,2.509a1.94,1.94,0,0,1-.4.633,1.817,1.817,0,0,1-.621.431,2.055,2.055,0,0,1-.824.156,2.066,2.066,0,0,1-.756-.131,2.27,2.27,0,0,1-.6-.359,1.707,1.707,0,0,1-.418-.541,2.07,2.07,0,0,1-.207-.667v-.587a1.9,1.9,0,0,1,.616-1.229,1.94,1.94,0,0,1,1.369-.5,2.064,2.064,0,0,1,.824.161,1.955,1.955,0,0,1,.629.436,1.941,1.941,0,0,1,.4.654,2.31,2.31,0,0,1,.131.786A2.122,2.122,0,0,1-3828.424,4862.165Z" transform="translate(3857.623 -4853.703)" fill="#4b4b4b"/>
      <path class="-logo-text"  data-name="Caminho-19" d="M-3800.971,4862.9a1.409,1.409,0,0,1-.866-.232,1.011,1.011,0,0,1-.308-.862v-3.35l1.905-1.906h-1.905v-2.382h-2.366v2.382h-1.352v1.906h1.352v3.95a2.544,2.544,0,0,0,.731,2.057,3.305,3.305,0,0,0,2.175.613,10.692,10.692,0,0,0,1.365-.1v-2.142c-.14.021-.266.038-.389.046A3.307,3.307,0,0,1-3800.971,4862.9Z" transform="translate(3838.489 -4853.056)" fill="#4b4b4b"/>
      <path class="-logo-text"  data-name="Caminho-20" d="M-3777.651,4863.428a4.2,4.2,0,0,0-.929-1.381,4.3,4.3,0,0,0-.9-.676,4.4,4.4,0,0,0-.495-.237,4.663,4.663,0,0,0-1.757-.325,4.643,4.643,0,0,0-1.753.325,4.082,4.082,0,0,0-1.381.9,4.251,4.251,0,0,0-.913,1.382,4.464,4.464,0,0,0-.334,1.741,4.37,4.37,0,0,0,.334,1.728,3.729,3.729,0,0,0,.262.52,4.035,4.035,0,0,0,.65.857,4.081,4.081,0,0,0,1.381.9,4.633,4.633,0,0,0,1.753.326,4.654,4.654,0,0,0,1.757-.326,4.314,4.314,0,0,0,1.395-.9,4.1,4.1,0,0,0,.929-1.377,4.374,4.374,0,0,0,.333-1.728A4.4,4.4,0,0,0-3777.651,4863.428Zm-2.269,2.509a2,2,0,0,1-.389.634,1.79,1.79,0,0,1-.6.431,1.915,1.915,0,0,1-.786.156,1.955,1.955,0,0,1-.794-.156,1.937,1.937,0,0,1-.629-.431,1.824,1.824,0,0,1-.4-.634,2.046,2.046,0,0,1-.114-.41,1.916,1.916,0,0,1-.03-.351,2.125,2.125,0,0,1,.144-.786,1.952,1.952,0,0,1,.4-.655,2.015,2.015,0,0,1,.621-.436,1.96,1.96,0,0,1,.8-.161,1.741,1.741,0,0,1,.406.043h0a1.68,1.68,0,0,1,.376.118,1.932,1.932,0,0,1,.612.436,1.992,1.992,0,0,1,.389.655,2.31,2.31,0,0,1,.135.786A2.133,2.133,0,0,1-3779.92,4865.938Z" transform="translate(3825.346 -4857.476)" fill="#4b4b4b"/>
    </g>
  </g>
</svg>
